<svg id="svg" version="1.1" xmlns="http://www.w3.org/2000/svg" xmlns:xlink="http://www.w3.org/1999/xlink" width="400" height="450" viewBox="0, 0, 400,450"><g id="svgg"><path id="path0" d="M193.600 21.509 C 191.675 22.226,187.895 23.632,185.200 24.634 C 172.620 29.313,164.114 33.490,158.543 37.728 L 157.343 38.640 157.477 37.170 C 158.043 30.917,157.854 29.795,156.235 29.804 C 154.664 29.814,153.879 30.400,148.600 35.503 C 142.484 41.415,140.181 42.743,137.135 42.114 C 127.584 40.141,115.244 48.240,112.575 58.234 C 112.281 59.336,112.278 59.337,109.100 59.517 C 107.503 59.608,105.802 59.527,102.893 59.221 C 94.748 58.365,93.376 58.694,88.700 62.621 C 81.850 68.374,74.288 75.538,61.987 87.928 C 52.654 97.329,53.241 96.528,51.113 102.760 C 48.504 110.403,46.511 112.915,33.794 124.595 C 11.966 144.645,8.519 152.059,2.692 191.500 C 2.074 195.680,1.252 200.855,0.866 203.000 C -0.219 209.020,-0.326 208.005,1.816 212.016 C 10.212 227.744,16.379 245.378,17.336 256.400 C 17.581 259.228,15.893 260.581,13.169 259.738 L 12.237 259.450 12.093 261.952 C 11.478 272.621,11.633 273.131,23.868 300.626 C 33.982 323.356,37.272 331.441,41.090 342.950 L 42.433 347.000 43.185 347.000 C 46.111 347.000,49.171 350.606,50.025 355.059 C 53.382 372.576,60.459 382.751,71.958 386.595 C 74.580 387.472,75.805 387.597,81.800 387.600 C 90.818 387.604,94.198 388.466,98.083 391.750 C 104.133 396.865,110.938 399.373,119.100 399.497 L 122.500 399.548 124.700 400.744 C 125.910 401.402,130.455 403.766,134.800 405.996 C 145.100 411.284,150.138 414.122,154.741 417.227 C 156.770 418.597,158.679 418.538,159.752 417.075 C 160.513 416.036,160.707 416.630,160.647 419.812 L 160.595 422.600 161.101 422.600 C 161.379 422.600,163.743 422.336,166.353 422.014 C 190.578 419.021,206.617 419.348,220.357 423.114 L 223.015 423.843 224.857 423.307 C 230.853 421.562,236.874 422.925,245.708 428.030 C 247.134 428.854,248.480 429.536,248.700 429.545 C 248.920 429.555,249.882 429.630,250.839 429.711 C 253.635 429.947,254.538 429.245,254.020 427.235 C 253.887 426.721,253.729 426.104,253.669 425.863 C 253.402 424.805,257.914 423.229,265.877 421.600 C 271.905 420.366,271.776 420.320,275.375 424.959 C 277.029 427.091,278.397 428.086,280.212 428.478 L 280.723 428.588 280.722 425.144 C 280.718 418.484,281.722 417.614,289.099 417.882 L 292.927 418.021 292.913 414.361 C 292.897 409.982,292.912 409.940,295.403 407.500 C 296.302 406.620,298.393 404.415,300.052 402.600 C 306.360 395.696,311.833 390.775,313.176 390.803 C 313.244 390.804,314.690 392.334,316.390 394.203 C 319.773 397.923,319.788 397.934,319.828 396.850 C 319.960 393.295,318.692 390.317,315.727 387.218 C 312.515 383.861,312.556 383.744,317.500 382.132 C 323.458 380.189,324.667 380.228,327.846 382.467 C 329.286 383.480,329.400 383.365,328.482 381.824 C 326.316 378.187,328.445 376.430,335.288 376.205 C 339.733 376.059,340.365 375.865,341.885 374.175 C 343.185 372.729,344.172 369.681,344.193 367.044 C 344.200 366.226,344.392 365.958,348.658 360.844 C 364.426 341.943,374.957 323.584,383.818 299.550 C 384.522 297.641,384.494 297.641,381.959 299.547 C 377.513 302.888,373.188 307.596,369.638 312.957 C 366.650 317.471,365.167 318.242,362.858 316.481 C 361.996 315.824,362.160 315.535,360.704 320.279 C 360.047 322.422,359.491 324.158,359.469 324.136 C 359.432 324.098,359.688 320.606,359.871 318.650 C 359.981 317.475,360.068 317.429,355.547 320.967 C 329.682 341.206,306.355 358.070,286.900 370.596 C 279.943 375.076,277.164 375.065,274.798 370.550 C 274.173 369.356,274.450 369.259,271.782 371.616 C 269.219 373.880,267.755 374.725,266.934 374.413 C 265.843 373.998,265.392 372.407,265.864 370.640 L 266.147 369.580 265.523 369.740 C 264.890 369.903,264.043 369.909,261.000 369.775 C 258.857 369.680,258.435 369.928,257.592 371.774 C 256.242 374.732,256.187 374.754,255.072 372.756 C 254.436 371.617,254.149 371.287,253.754 371.239 C 253.157 371.167,253.168 371.134,252.684 374.500 C 252.361 376.745,252.000 377.943,252.000 376.767 C 252.000 374.323,249.211 375.180,247.824 378.050 C 247.253 379.230,247.508 379.396,245.681 376.650 C 244.338 374.632,240.688 370.445,240.465 370.668 C 240.426 370.708,240.662 371.316,240.990 372.020 C 242.916 376.152,242.439 379.417,240.349 376.412 C 239.861 375.710,239.810 375.858,239.488 378.912 C 239.328 380.428,239.176 381.683,239.149 381.699 C 239.122 381.715,238.659 381.981,238.121 382.290 C 237.583 382.598,236.221 383.773,235.096 384.899 C 232.628 387.370,232.337 387.496,228.400 387.795 C 221.654 388.308,215.422 389.291,209.289 390.811 L 206.077 391.606 201.589 390.516 C 187.524 387.099,173.013 384.814,158.300 383.698 C 145.182 382.704,136.479 379.944,124.750 373.058 C 121.802 371.327,121.954 371.518,123.093 370.982 C 125.832 369.695,127.298 367.050,126.714 364.450 C 126.523 363.598,126.321 363.630,125.778 364.597 C 124.867 366.217,119.574 368.200,116.160 368.200 C 115.879 368.200,114.325 366.808,111.519 364.045 C 106.624 359.223,104.057 356.801,90.600 344.300 C 73.096 328.040,64.224 319.355,56.574 310.992 C 46.440 299.915,46.061 299.289,39.203 282.300 C 36.067 274.532,34.074 270.000,33.794 270.000 C 33.714 270.000,33.407 270.315,33.113 270.700 C 31.435 272.901,29.577 272.286,28.020 269.013 C 25.967 264.699,28.716 261.031,31.903 263.830 C 32.825 264.639,32.944 265.919,30.496 248.765 C 27.920 230.711,27.853 232.448,31.393 225.378 C 33.798 220.573,33.477 222.486,36.497 195.000 C 39.343 169.093,39.618 167.088,41.219 160.600 C 46.531 139.066,57.951 120.970,78.865 100.950 C 97.680 82.939,101.493 79.742,110.000 74.847 C 112.475 73.422,117.785 70.298,121.800 67.903 C 147.047 52.846,157.827 48.061,173.600 44.912 C 181.631 43.309,186.465 42.909,197.283 42.953 C 207.051 42.994,208.103 42.896,210.259 41.750 C 213.140 40.220,213.913 38.040,213.850 31.621 C 213.802 26.657,213.945 27.089,212.491 27.511 C 210.207 28.175,208.362 27.460,204.900 24.572 C 202.216 22.332,201.030 21.556,199.260 20.884 C 197.247 20.119,197.373 20.106,193.600 21.509 M260.800 33.440 C 252.265 33.658,251.254 34.028,249.584 37.554 C 249.337 38.074,249.123 38.519,249.108 38.543 C 249.093 38.567,248.500 38.342,247.790 38.043 C 246.316 37.423,238.514 37.261,235.900 37.797 C 233.166 38.357,230.883 40.055,229.751 42.369 C 225.223 51.625,240.157 62.551,258.400 63.329 L 261.300 63.452 263.300 64.562 C 277.231 72.293,289.913 80.725,318.308 101.136 C 330.869 110.165,334.943 112.969,335.861 113.218 C 337.979 113.794,340.358 113.178,344.839 110.897 C 346.455 110.073,347.841 109.400,347.917 109.400 C 347.994 109.400,348.007 110.368,347.945 111.550 C 347.642 117.379,348.594 121.750,352.173 130.949 C 354.849 137.829,356.253 139.723,361.074 142.958 C 368.606 148.011,370.924 155.524,367.994 165.388 C 367.252 167.885,367.197 167.416,368.569 170.284 C 372.829 179.190,379.557 188.201,383.929 190.857 C 385.692 191.928,385.846 192.244,386.003 195.097 C 386.279 200.135,388.471 201.504,391.274 198.387 C 392.386 197.150,392.361 197.005,391.809 201.511 C 390.253 214.221,390.101 220.090,391.193 225.381 C 391.589 227.298,392.000 228.187,392.000 227.126 C 392.000 217.631,395.531 197.599,398.943 187.735 C 399.545 185.995,399.985 184.518,399.921 184.454 C 399.378 183.912,397.051 185.966,395.677 188.200 C 394.348 190.362,393.822 190.865,392.450 191.288 L 392.000 191.427 391.998 186.963 C 391.994 178.484,391.382 170.090,389.893 158.100 C 388.103 143.688,387.241 137.249,387.053 136.900 C 385.290 133.613,346.259 71.690,344.948 70.101 C 327.795 49.294,293.846 32.772,269.200 33.236 C 268.375 33.251,264.595 33.343,260.800 33.440 M83.023 140.182 C 82.445 140.548,83.180 146.278,84.208 149.424 C 86.656 156.915,92.792 162.538,102.911 166.563 C 108.724 168.875,116.918 170.675,121.500 170.645 L 123.900 170.630 121.960 170.995 C 114.943 172.318,109.894 176.517,107.798 182.775 C 106.566 186.451,106.946 191.871,108.583 193.990 L 108.962 194.480 109.749 193.936 L 110.535 193.391 110.175 192.325 C 106.960 182.803,113.730 173.819,125.428 172.083 C 127.571 171.765,137.840 171.773,138.160 172.093 C 138.243 172.176,124.862 236.404,124.736 236.531 C 124.710 236.557,122.546 236.672,119.928 236.786 C 93.371 237.948,80.522 246.589,80.055 263.600 C 79.907 269.009,80.630 272.217,82.789 275.724 C 90.619 288.439,109.899 287.659,116.720 274.350 C 116.988 273.828,117.253 273.400,117.309 273.400 C 117.364 273.400,117.282 273.647,117.126 273.950 C 116.970 274.252,116.167 276.525,115.342 279.000 C 108.837 298.518,100.604 306.837,86.916 307.722 L 84.800 307.859 84.800 308.929 L 84.800 310.000 86.255 310.000 C 102.948 310.000,112.968 298.766,119.701 272.500 C 120.328 270.055,135.701 197.131,138.673 182.504 L 138.916 181.308 139.583 184.104 C 141.182 190.807,143.982 200.226,149.600 217.800 C 160.129 250.734,163.703 268.274,161.819 277.770 L 161.646 278.641 162.195 278.531 C 162.497 278.471,163.199 278.361,163.754 278.287 L 164.764 278.153 179.862 241.927 C 195.794 203.698,205.258 180.206,206.000 177.046 C 206.238 176.031,206.481 175.200,206.540 175.200 C 206.599 175.200,206.575 175.447,206.487 175.750 C 206.399 176.053,206.271 197.090,206.203 222.500 C 206.072 271.033,206.102 269.537,205.189 273.169 C 203.218 281.007,196.356 284.113,185.866 281.914 C 185.166 281.768,184.561 281.704,184.520 281.774 C 183.322 283.817,185.223 284.505,192.000 284.483 C 201.526 284.451,206.020 281.100,207.907 272.623 C 208.790 268.651,208.799 268.147,208.799 217.350 L 208.800 168.800 208.325 168.800 C 208.064 168.800,207.570 168.744,207.228 168.676 C 206.793 168.589,206.577 168.634,206.510 168.826 C 206.457 168.977,205.818 170.810,205.089 172.900 C 200.384 186.390,169.773 261.090,169.653 259.374 C 168.998 250.015,167.976 244.063,165.107 232.900 C 163.182 225.410,162.083 221.730,157.101 206.100 C 150.081 184.076,146.600 172.309,146.600 170.603 C 146.600 170.244,146.469 170.200,145.400 170.200 L 144.200 170.200 144.202 171.450 C 144.206 174.122,146.283 181.692,150.780 195.422 C 166.682 243.973,169.890 260.054,165.665 270.023 L 164.700 272.299 164.559 269.600 C 164.095 260.724,162.061 250.030,158.301 236.700 C 156.975 232.000,156.164 229.372,152.371 217.500 C 143.714 190.401,141.042 180.160,140.849 173.350 C 140.756 170.093,140.742 170.000,140.327 169.999 C 120.868 169.932,103.352 165.938,94.900 159.639 C 89.237 155.419,85.213 148.246,85.198 142.343 C 85.192 140.124,84.383 139.320,83.023 140.182 M227.500 152.604 C 219.212 153.189,215.020 157.392,213.440 166.700 C 213.126 168.545,213.100 172.580,213.100 218.600 L 213.100 268.500 213.539 270.900 C 215.356 280.833,219.685 284.449,229.800 284.483 C 235.755 284.503,237.711 284.057,237.491 282.730 C 237.302 281.589,237.355 281.616,235.934 281.914 C 225.720 284.055,218.872 281.139,216.797 273.764 C 215.668 269.749,215.735 272.888,215.651 220.500 C 215.557 162.761,215.480 164.530,218.320 159.684 C 220.773 155.498,227.633 153.630,235.263 155.071 C 237.522 155.498,237.324 155.558,237.498 154.390 L 237.633 153.481 236.167 153.139 C 233.874 152.604,230.470 152.394,227.500 152.604 M265.000 169.902 C 253.594 171.468,247.803 177.882,248.476 188.200 C 249.144 198.421,256.639 204.374,265.863 202.010 C 272.510 200.307,276.681 192.245,274.105 186.081 L 273.819 185.396 272.959 185.728 C 271.772 186.187,271.740 186.236,272.008 187.225 C 275.295 199.385,258.210 205.539,252.593 194.218 C 250.525 190.049,250.573 183.674,252.704 179.619 C 256.269 172.835,264.164 170.917,283.400 172.164 C 285.325 172.289,291.625 172.670,297.400 173.012 C 303.174 173.353,307.932 173.665,307.972 173.705 C 308.226 173.960,303.823 181.604,299.994 187.554 C 298.136 190.442,271.512 228.861,261.917 242.500 C 248.725 261.252,246.400 266.824,246.400 279.683 L 246.400 284.145 247.916 284.390 C 248.750 284.524,249.452 284.604,249.476 284.567 C 249.500 284.530,250.000 283.240,250.586 281.700 C 251.487 279.333,253.493 274.663,253.710 274.429 C 253.746 274.390,259.158 275.731,265.738 277.409 C 286.858 282.794,292.098 283.922,299.200 284.611 C 312.659 285.916,320.000 280.770,320.000 270.028 C 320.000 264.234,318.762 260.833,317.063 261.958 L 316.241 262.502 316.607 263.216 C 318.123 266.170,317.880 273.027,316.134 276.596 C 312.749 283.514,304.518 284.156,282.836 279.191 C 279.371 278.398,255.171 272.215,255.027 272.086 C 254.907 271.979,256.913 268.321,258.858 265.100 C 262.160 259.630,265.352 254.947,286.405 224.700 C 313.355 185.980,315.989 181.844,318.516 174.294 C 319.407 171.631,319.405 171.599,318.350 171.603 C 316.776 171.608,316.721 171.659,316.016 173.765 C 313.606 180.963,312.538 182.634,285.323 221.800 C 256.036 263.948,253.219 268.341,249.685 277.400 L 249.100 278.900 249.041 277.203 C 248.843 271.477,251.387 263.943,256.203 256.000 C 259.907 249.889,259.222 250.895,282.298 217.700 C 304.794 185.339,305.908 183.637,310.034 175.355 C 311.968 171.470,311.962 171.665,310.150 171.511 C 308.368 171.360,290.635 170.290,283.400 169.897 C 276.857 169.541,267.609 169.544,265.000 169.902 M124.124 239.350 C 124.067 239.543,123.208 243.570,122.214 248.300 C 117.412 271.168,113.898 278.372,106.114 281.302 C 94.179 285.794,83.049 278.183,82.653 265.257 C 82.223 251.225,90.169 243.204,107.467 240.212 C 113.717 239.132,124.351 238.581,124.124 239.350 M33.184 281.109 C 34.132 281.966,35.205 284.010,37.318 288.988 C 38.179 291.016,39.306 293.379,39.823 294.238 C 40.339 295.097,40.716 295.800,40.660 295.800 C 40.243 295.800,37.597 294.167,36.871 293.461 C 35.685 292.309,35.243 291.242,35.007 288.965 C 34.755 286.536,33.839 284.154,32.091 281.385 C 31.326 280.174,31.969 280.012,33.184 281.109 M27.966 281.259 C 28.205 281.547,30.638 289.331,30.407 289.066 C 30.327 288.975,29.362 287.775,28.263 286.400 C 27.163 285.025,26.114 283.776,25.932 283.626 C 25.398 283.183,25.533 282.427,26.280 281.680 C 26.990 280.970,27.600 280.818,27.966 281.259 " stroke="none" fill="#000000" fill-rule="evenodd"></path><path id="path1" d="M193.600 21.509 C 191.675 22.226,187.895 23.632,185.200 24.634 C 172.620 29.313,164.114 33.490,158.543 37.728 L 157.343 38.640 157.477 37.170 C 158.043 30.917,157.854 29.795,156.235 29.804 C 154.664 29.814,153.879 30.400,148.600 35.503 C 142.484 41.415,140.181 42.743,137.135 42.114 C 127.584 40.141,115.244 48.240,112.575 58.234 C 112.281 59.336,112.278 59.337,109.100 59.517 C 107.503 59.608,105.802 59.527,102.893 59.221 C 94.748 58.365,93.376 58.694,88.700 62.621 C 81.850 68.374,74.288 75.538,61.987 87.928 C 52.654 97.329,53.241 96.528,51.113 102.760 C 48.504 110.403,46.511 112.915,33.794 124.595 C 11.966 144.645,8.519 152.059,2.692 191.500 C 2.074 195.680,1.252 200.855,0.866 203.000 C -0.219 209.020,-0.326 208.005,1.816 212.016 C 10.212 227.744,16.379 245.378,17.336 256.400 C 17.581 259.228,15.893 260.581,13.169 259.738 L 12.237 259.450 12.093 261.952 C 11.478 272.621,11.633 273.131,23.868 300.626 C 33.982 323.356,37.272 331.441,41.090 342.950 L 42.433 347.000 43.185 347.000 C 46.111 347.000,49.171 350.606,50.025 355.059 C 53.382 372.576,60.459 382.751,71.958 386.595 C 74.580 387.472,75.805 387.597,81.800 387.600 C 90.818 387.604,94.198 388.466,98.083 391.750 C 104.133 396.865,110.938 399.373,119.100 399.497 L 122.500 399.548 124.700 400.744 C 125.910 401.402,130.455 403.766,134.800 405.996 C 145.100 411.284,150.138 414.122,154.741 417.227 C 156.770 418.597,158.679 418.538,159.752 417.075 C 160.513 416.036,160.707 416.630,160.647 419.812 L 160.595 422.600 161.101 422.600 C 161.379 422.600,163.743 422.336,166.353 422.014 C 190.578 419.021,206.617 419.348,220.357 423.114 L 223.015 423.843 224.857 423.307 C 230.853 421.562,236.874 422.925,245.708 428.030 C 247.134 428.854,248.480 429.536,248.700 429.545 C 248.920 429.555,249.882 429.630,250.839 429.711 C 253.635 429.947,254.538 429.245,254.020 427.235 C 253.887 426.721,253.729 426.104,253.669 425.863 C 253.402 424.805,257.914 423.229,265.877 421.600 C 271.905 420.366,271.776 420.320,275.375 424.959 C 277.029 427.091,278.397 428.086,280.212 428.478 L 280.723 428.588 280.722 425.144 C 280.718 418.484,281.722 417.614,289.099 417.882 L 292.927 418.021 292.913 414.361 C 292.897 409.982,292.912 409.940,295.403 407.500 C 296.302 406.620,298.393 404.415,300.052 402.600 C 306.360 395.696,311.833 390.775,313.176 390.803 C 313.244 390.804,314.690 392.334,316.390 394.203 C 319.773 397.923,319.788 397.934,319.828 396.850 C 319.960 393.295,318.692 390.317,315.727 387.218 C 312.515 383.861,312.556 383.744,317.500 382.132 C 323.458 380.189,324.667 380.228,327.846 382.467 C 329.286 383.480,329.400 383.365,328.482 381.824 C 326.316 378.187,328.445 376.430,335.288 376.205 C 339.733 376.059,340.365 375.865,341.885 374.175 C 343.185 372.729,344.172 369.681,344.193 367.044 C 344.200 366.226,344.392 365.958,348.658 360.844 C 364.426 341.943,374.957 323.584,383.818 299.550 C 384.522 297.641,384.494 297.641,381.959 299.547 C 377.513 302.888,373.188 307.596,369.638 312.957 C 366.650 317.471,365.167 318.242,362.858 316.481 C 361.996 315.824,362.160 315.535,360.704 320.279 C 360.047 322.422,359.491 324.158,359.469 324.136 C 359.432 324.098,359.688 320.606,359.871 318.650 C 359.981 317.475,360.068 317.429,355.547 320.967 C 329.682 341.206,306.355 358.070,286.900 370.596 C 279.943 375.076,277.164 375.065,274.798 370.550 C 274.173 369.356,274.450 369.259,271.782 371.616 C 269.219 373.880,267.755 374.725,266.934 374.413 C 265.843 373.998,265.392 372.407,265.864 370.640 L 266.147 369.580 265.523 369.740 C 264.890 369.903,264.043 369.909,261.000 369.775 C 258.857 369.680,258.435 369.928,257.592 371.774 C 256.242 374.732,256.187 374.754,255.072 372.756 C 254.436 371.617,254.149 371.287,253.754 371.239 C 253.157 371.167,253.168 371.134,252.684 374.500 C 252.361 376.745,252.000 377.943,252.000 376.767 C 252.000 374.323,249.211 375.180,247.824 378.050 C 247.253 379.230,247.508 379.396,245.681 376.650 C 244.338 374.632,240.688 370.445,240.465 370.668 C 240.426 370.708,240.662 371.316,240.990 372.020 C 242.916 376.152,242.439 379.417,240.349 376.412 C 239.861 375.710,239.810 375.858,239.488 378.912 C 239.328 380.428,239.176 381.683,239.149 381.699 C 239.122 381.715,238.659 381.981,238.121 382.290 C 237.583 382.598,236.221 383.773,235.096 384.899 C 232.628 387.370,232.337 387.496,228.400 387.795 C 221.654 388.308,215.422 389.291,209.289 390.811 L 206.077 391.606 201.589 390.516 C 187.524 387.099,173.013 384.814,158.300 383.698 C 145.182 382.704,136.479 379.944,124.750 373.058 C 121.802 371.327,121.954 371.518,123.093 370.982 C 125.832 369.695,127.298 367.050,126.714 364.450 C 126.523 363.598,126.321 363.630,125.778 364.597 C 124.867 366.217,119.574 368.200,116.160 368.200 C 115.879 368.200,114.325 366.808,111.519 364.045 C 106.624 359.223,104.057 356.801,90.600 344.300 C 73.096 328.040,64.224 319.355,56.574 310.992 C 46.440 299.915,46.061 299.289,39.203 282.300 C 36.067 274.532,34.074 270.000,33.794 270.000 C 33.714 270.000,33.407 270.315,33.113 270.700 C 31.435 272.901,29.577 272.286,28.020 269.013 C 25.967 264.699,28.716 261.031,31.903 263.830 C 32.825 264.639,32.944 265.919,30.496 248.765 C 27.920 230.711,27.853 232.448,31.393 225.378 C 33.798 220.573,33.477 222.486,36.497 195.000 C 39.343 169.093,39.618 167.088,41.219 160.600 C 46.531 139.066,57.951 120.970,78.865 100.950 C 97.680 82.939,101.493 79.742,110.000 74.847 C 112.475 73.422,117.785 70.298,121.800 67.903 C 147.047 52.846,157.827 48.061,173.600 44.912 C 181.631 43.309,186.465 42.909,197.283 42.953 C 207.051 42.994,208.103 42.896,210.259 41.750 C 213.140 40.220,213.913 38.040,213.850 31.621 C 213.802 26.657,213.945 27.089,212.491 27.511 C 210.207 28.175,208.362 27.460,204.900 24.572 C 202.216 22.332,201.030 21.556,199.260 20.884 C 197.247 20.119,197.373 20.106,193.600 21.509 M260.800 33.440 C 252.265 33.658,251.254 34.028,249.584 37.554 C 249.337 38.074,249.123 38.519,249.108 38.543 C 249.093 38.567,248.500 38.342,247.790 38.043 C 246.316 37.423,238.514 37.261,235.900 37.797 C 233.166 38.357,230.883 40.055,229.751 42.369 C 225.223 51.625,240.157 62.551,258.400 63.329 L 261.300 63.452 263.300 64.562 C 277.231 72.293,289.913 80.725,318.308 101.136 C 330.869 110.165,334.943 112.969,335.861 113.218 C 337.979 113.794,340.358 113.178,344.839 110.897 C 346.455 110.073,347.841 109.400,347.917 109.400 C 347.994 109.400,348.007 110.368,347.945 111.550 C 347.642 117.379,348.594 121.750,352.173 130.949 C 354.849 137.829,356.253 139.723,361.074 142.958 C 368.606 148.011,370.924 155.524,367.994 165.388 C 367.252 167.885,367.197 167.416,368.569 170.284 C 372.829 179.190,379.557 188.201,383.929 190.857 C 385.692 191.928,385.846 192.244,386.003 195.097 C 386.279 200.135,388.471 201.504,391.274 198.387 C 392.386 197.150,392.361 197.005,391.809 201.511 C 390.253 214.221,390.101 220.090,391.193 225.381 C 391.589 227.298,392.000 228.187,392.000 227.126 C 392.000 217.631,395.531 197.599,398.943 187.735 C 399.545 185.995,399.985 184.518,399.921 184.454 C 399.378 183.912,397.051 185.966,395.677 188.200 C 394.348 190.362,393.822 190.865,392.450 191.288 L 392.000 191.427 391.998 186.963 C 391.994 178.484,391.382 170.090,389.893 158.100 C 388.103 143.688,387.241 137.249,387.053 136.900 C 385.290 133.613,346.259 71.690,344.948 70.101 C 327.795 49.294,293.846 32.772,269.200 33.236 C 268.375 33.251,264.595 33.343,260.800 33.440 M83.023 140.182 C 82.445 140.548,83.180 146.278,84.208 149.424 C 86.656 156.915,92.792 162.538,102.911 166.563 C 108.724 168.875,116.918 170.675,121.500 170.645 L 123.900 170.630 121.960 170.995 C 114.943 172.318,109.894 176.517,107.798 182.775 C 106.566 186.451,106.946 191.871,108.583 193.990 L 108.962 194.480 109.749 193.936 L 110.535 193.391 110.175 192.325 C 106.960 182.803,113.730 173.819,125.428 172.083 C 127.571 171.765,137.840 171.773,138.160 172.093 C 138.243 172.176,124.862 236.404,124.736 236.531 C 124.710 236.557,122.546 236.672,119.928 236.786 C 93.371 237.948,80.522 246.589,80.055 263.600 C 79.907 269.009,80.630 272.217,82.789 275.724 C 90.619 288.439,109.899 287.659,116.720 274.350 C 116.988 273.828,117.253 273.400,117.309 273.400 C 117.364 273.400,117.282 273.647,117.126 273.950 C 116.970 274.252,116.167 276.525,115.342 279.000 C 108.837 298.518,100.604 306.837,86.916 307.722 L 84.800 307.859 84.800 308.929 L 84.800 310.000 86.255 310.000 C 102.948 310.000,112.968 298.766,119.701 272.500 C 120.328 270.055,135.701 197.131,138.673 182.504 L 138.916 181.308 139.583 184.104 C 141.182 190.807,143.982 200.226,149.600 217.800 C 160.129 250.734,163.703 268.274,161.819 277.770 L 161.646 278.641 162.195 278.531 C 162.497 278.471,163.199 278.361,163.754 278.287 L 164.764 278.153 179.862 241.927 C 195.794 203.698,205.258 180.206,206.000 177.046 C 206.238 176.031,206.481 175.200,206.540 175.200 C 206.599 175.200,206.575 175.447,206.487 175.750 C 206.399 176.053,206.271 197.090,206.203 222.500 C 206.072 271.033,206.102 269.537,205.189 273.169 C 203.218 281.007,196.356 284.113,185.866 281.914 C 185.166 281.768,184.561 281.704,184.520 281.774 C 183.322 283.817,185.223 284.505,192.000 284.483 C 201.526 284.451,206.020 281.100,207.907 272.623 C 208.790 268.651,208.799 268.147,208.799 217.350 L 208.800 168.800 208.325 168.800 C 208.064 168.800,207.570 168.744,207.228 168.676 C 206.793 168.589,206.577 168.634,206.510 168.826 C 206.457 168.977,205.818 170.810,205.089 172.900 C 200.384 186.390,169.773 261.090,169.653 259.374 C 168.998 250.015,167.976 244.063,165.107 232.900 C 163.182 225.410,162.083 221.730,157.101 206.100 C 150.081 184.076,146.600 172.309,146.600 170.603 C 146.600 170.244,146.469 170.200,145.400 170.200 L 144.200 170.200 144.202 171.450 C 144.206 174.122,146.283 181.692,150.780 195.422 C 166.682 243.973,169.890 260.054,165.665 270.023 L 164.700 272.299 164.559 269.600 C 164.095 260.724,162.061 250.030,158.301 236.700 C 156.975 232.000,156.164 229.372,152.371 217.500 C 143.714 190.401,141.042 180.160,140.849 173.350 C 140.756 170.093,140.742 170.000,140.327 169.999 C 120.868 169.932,103.352 165.938,94.900 159.639 C 89.237 155.419,85.213 148.246,85.198 142.343 C 85.192 140.124,84.383 139.320,83.023 140.182 M227.500 152.604 C 219.212 153.189,215.020 157.392,213.440 166.700 C 213.126 168.545,213.100 172.580,213.100 218.600 L 213.100 268.500 213.539 270.900 C 215.356 280.833,219.685 284.449,229.800 284.483 C 235.755 284.503,237.711 284.057,237.491 282.730 C 237.302 281.589,237.355 281.616,235.934 281.914 C 225.720 284.055,218.872 281.139,216.797 273.764 C 215.668 269.749,215.735 272.888,215.651 220.500 C 215.557 162.761,215.480 164.530,218.320 159.684 C 220.773 155.498,227.633 153.630,235.263 155.071 C 237.522 155.498,237.324 155.558,237.498 154.390 L 237.633 153.481 236.167 153.139 C 233.874 152.604,230.470 152.394,227.500 152.604 M265.000 169.902 C 253.594 171.468,247.803 177.882,248.476 188.200 C 249.144 198.421,256.639 204.374,265.863 202.010 C 272.510 200.307,276.681 192.245,274.105 186.081 L 273.819 185.396 272.959 185.728 C 271.772 186.187,271.740 186.236,272.008 187.225 C 275.295 199.385,258.210 205.539,252.593 194.218 C 250.525 190.049,250.573 183.674,252.704 179.619 C 256.269 172.835,264.164 170.917,283.400 172.164 C 285.325 172.289,291.625 172.670,297.400 173.012 C 303.174 173.353,307.932 173.665,307.972 173.705 C 308.226 173.960,303.823 181.604,299.994 187.554 C 298.136 190.442,271.512 228.861,261.917 242.500 C 248.725 261.252,246.400 266.824,246.400 279.683 L 246.400 284.145 247.916 284.390 C 248.750 284.524,249.452 284.604,249.476 284.567 C 249.500 284.530,250.000 283.240,250.586 281.700 C 251.487 279.333,253.493 274.663,253.710 274.429 C 253.746 274.390,259.158 275.731,265.738 277.409 C 286.858 282.794,292.098 283.922,299.200 284.611 C 312.659 285.916,320.000 280.770,320.000 270.028 C 320.000 264.234,318.762 260.833,317.063 261.958 L 316.241 262.502 316.607 263.216 C 318.123 266.170,317.880 273.027,316.134 276.596 C 312.749 283.514,304.518 284.156,282.836 279.191 C 279.371 278.398,255.171 272.215,255.027 272.086 C 254.907 271.979,256.913 268.321,258.858 265.100 C 262.160 259.630,265.352 254.947,286.405 224.700 C 313.355 185.980,315.989 181.844,318.516 174.294 C 319.407 171.631,319.405 171.599,318.350 171.603 C 316.776 171.608,316.721 171.659,316.016 173.765 C 313.606 180.963,312.538 182.634,285.323 221.800 C 256.036 263.948,253.219 268.341,249.685 277.400 L 249.100 278.900 249.041 277.203 C 248.843 271.477,251.387 263.943,256.203 256.000 C 259.907 249.889,259.222 250.895,282.298 217.700 C 304.794 185.339,305.908 183.637,310.034 175.355 C 311.968 171.470,311.962 171.665,310.150 171.511 C 308.368 171.360,290.635 170.290,283.400 169.897 C 276.857 169.541,267.609 169.544,265.000 169.902 M124.124 239.350 C 124.067 239.543,123.208 243.570,122.214 248.300 C 117.412 271.168,113.898 278.372,106.114 281.302 C 94.179 285.794,83.049 278.183,82.653 265.257 C 82.223 251.225,90.169 243.204,107.467 240.212 C 113.717 239.132,124.351 238.581,124.124 239.350 M33.184 281.109 C 34.132 281.966,35.205 284.010,37.318 288.988 C 38.179 291.016,39.306 293.379,39.823 294.238 C 40.339 295.097,40.716 295.800,40.660 295.800 C 40.243 295.800,37.597 294.167,36.871 293.461 C 35.685 292.309,35.243 291.242,35.007 288.965 C 34.755 286.536,33.839 284.154,32.091 281.385 C 31.326 280.174,31.969 280.012,33.184 281.109 M27.966 281.259 C 28.205 281.547,30.638 289.331,30.407 289.066 C 30.327 288.975,29.362 287.775,28.263 286.400 C 27.163 285.025,26.114 283.776,25.932 283.626 C 25.398 283.183,25.533 282.427,26.280 281.680 C 26.990 280.970,27.600 280.818,27.966 281.259 " stroke="none" fill="#000000" fill-rule="evenodd"></path></g></svg>